<?xml version="1.0" encoding="iso-8859-1"?>
<!-- Uploaded to: SVG Repo, www.svgrepo.com, Generator: SVG Repo Mixer Tools -->
<svg version="1.1" id="Layer_1" xmlns="http://www.w3.org/2000/svg" xmlns:xlink="http://www.w3.org/1999/xlink" 
	 viewBox="0 0 512 512" xml:space="preserve">
<polygon style="fill:#BFA779;" points="98.526,12.8 12.8,76.8 12.8,499.2 499.2,499.2 499.2,76.8 413.474,12.8 "/>
<polygon style="fill:#FEDEA1;" points="98.526,12.8 12.8,76.8 499.2,76.8 413.474,12.8 "/>
<rect x="217.6" y="12.8" style="fill:#BFA779;" width="76.8" height="64"/>
<rect x="217.6" y="76.8" style="fill:#7F6F51;" width="76.8" height="166.4"/>
<path style="fill:#573A32;" d="M25.6,512h460.8c14.14,0,25.6-11.46,25.6-25.6V76.8c0-8.559-4.275-16.555-11.4-21.299l-76.8-51.2
	C419.593,1.493,414.652,0,409.6,0H102.4c-5.052,0-9.993,1.493-14.199,4.301l-76.8,51.2C4.275,60.245,0,68.241,0,76.8v409.6
	C0,500.54,11.46,512,25.6,512z M307.2,25.6h102.4L467.2,64h-160V25.6z M230.4,25.6h51.2V64h-51.2V25.6z M230.4,89.6h51.2v140.8
	h-51.2V89.6z M102.4,25.6h102.4V64h-160L102.4,25.6z M25.6,89.6h179.2V256h102.4V89.6h179.2v396.8H25.6V89.6z"/>
</svg>